<svg height="64" viewBox="0 4 100 96" fill="none" xmlns="http://www.w3.org/2000/svg" stroke="#888888" stroke-width="2">
  <path d="M50 90.625C64.4042 87.1875 83.5751 69.8667 83.5751 48.6937V24.0854L50 9.375L16.425 24.0833V48.6937C16.425 69.8667 35.5959 87.1875 50 90.625Z" fill="#ff000050">
    <animate attributeName="fill" dur="2s" repeatCount="indefinite"
             values="#ff000000;#ff000050;#ff000000" />
  </path>

  <path d="M61.5395 46.0812H38.4604C37.1061 46.0812 36.0083 47.1791 36.0083 48.5333V65.075C36.0083 66.4292 37.1061 67.5271 38.4604 67.5271H61.5395C62.8938 67.5271 63.9916 66.4292 63.9916 65.075V48.5333C63.9916 47.1791 62.8938 46.0812 61.5395 46.0812Z" />

  <path d="M41.7834 46.0834V39.6813C41.7834 37.5021 42.6491 35.4121 44.1901 33.8712C45.731 32.3303 47.8209 31.4646 50.0001 31.4646C52.1793 31.4646 54.2693 32.3303 55.8102 33.8712C57.3511 35.4121 58.2168 37.5021 58.2168 39.6813V46.0813" />
</svg>
