<svg  height="64" viewBox="0 0 120 100" xmlns="http://www.w3.org/2000/svg">

  <g id="server">

<g fill="#88888888" stroke="#88888888" stroke-width="2" >
<path d="M18 90C13.5817 90 10 86.4182 10 82V38C10 33.5817 13.5817 30 18 30H50.5L58 43L52.5 53L56 68.5L49.0098 89.97L61.2141 71.4358L58.363 54.315L64.7769 43.5511L58.2763 30.2943L104.243 32.0434C108.658 32.2114 112.101 35.9267 111.933 40.3418L110.26 84.31C110.092 88.725 106.377 92.168 101.962 92L49 90H18Z" />
</g>
    <circle cx="30" cy="60" r="6" fill="red">
      <animate attributeName="fill" dur="0.8s"
               values="red;#2d0000;red" repeatCount="indefinite"/>
    </circle>

  </g>

  <g fill="lightgray" opacity="0.75">
    <circle cx="50" cy="35" r="6">
      <animate attributeName="cy" from="35" to="15" dur="2s"
               repeatCount="indefinite"/>
      <animate attributeName="opacity" values="0.75;0" dur="2s"
               repeatCount="indefinite"/>
    </circle>
    <circle cx="60" cy="40" r="4">
      <animate attributeName="cy" from="40" to="20" dur="2s"
               begin="0.4s" repeatCount="indefinite"/>
      <animate attributeName="opacity" values="0.75;0" dur="2s"
               begin="0.4s" repeatCount="indefinite"/>
    </circle>
  </g>

</svg>
