<svg width="356" height="140" viewBox="0 0 356 140" fill="none" xmlns="http://www.w3.org/2000/svg">
<g clip-path="url(#clip0_435_162)">
<path d="M27.48 115L5.28 51.28H25.56L38.16 93.28L35.64 93.04L50.04 59.8H62.4L77.76 93.04L75.24 93.28L87.84 51.28H108.24L85.32 115H70.8L54.24 76.6L58.68 76.48L41.88 115H27.48ZM237.351 97.72L231.111 83.32L266.511 51.28H292.071L237.351 97.72ZM219.711 115V26.2H238.431V115H219.711ZM268.671 115L242.631 83.08L255.951 72.52L291.351 115H268.671ZM318.412 116.2C311.372 116.2 305.052 115.2 299.452 113.2C293.932 111.2 289.492 108.36 286.132 104.68L297.772 94.36C300.492 96.92 303.732 98.88 307.492 100.24C311.252 101.6 315.212 102.28 319.372 102.28C320.652 102.28 321.892 102.16 323.092 101.92C324.372 101.68 325.452 101.36 326.332 100.96C327.292 100.48 328.052 99.92 328.612 99.28C329.172 98.64 329.452 97.84 329.452 96.88C329.452 95.36 328.492 94.16 326.572 93.28C325.212 92.8 323.492 92.32 321.412 91.84C319.332 91.36 316.972 90.84 314.332 90.28C309.932 89.48 306.052 88.52 302.692 87.4C299.412 86.2 296.652 84.72 294.412 82.96C292.492 81.28 291.012 79.36 289.972 77.2C288.932 75.04 288.412 72.52 288.412 69.64C288.412 66.68 289.172 64 290.692 61.6C292.212 59.12 294.332 57.04 297.052 55.36C299.772 53.6 302.892 52.28 306.412 51.4C309.932 50.44 313.612 49.96 317.452 49.96C321.292 49.96 325.052 50.36 328.732 51.16C332.412 51.88 335.892 52.96 339.172 54.4C342.452 55.76 345.332 57.52 347.812 59.68L337.972 71.2C336.212 69.84 334.172 68.6 331.852 67.48C329.532 66.36 327.052 65.48 324.412 64.84C321.852 64.12 319.332 63.76 316.852 63.76C315.492 63.76 314.172 63.84 312.892 64C311.692 64.16 310.652 64.48 309.772 64.96C308.892 65.36 308.172 65.88 307.612 66.52C307.132 67.08 306.892 67.8 306.892 68.68C306.892 69.4 307.092 70.08 307.492 70.72C307.892 71.36 308.492 71.88 309.292 72.28C310.412 73 312.052 73.64 314.212 74.2C316.452 74.76 319.252 75.36 322.612 76C327.492 77.04 331.652 78.24 335.092 79.6C338.532 80.88 341.292 82.44 343.372 84.28C345.052 85.56 346.292 87.16 347.092 89.08C347.892 90.92 348.292 92.96 348.292 95.2C348.292 99.28 346.972 102.92 344.332 106.12C341.772 109.24 338.252 111.72 333.772 113.56C329.372 115.32 324.252 116.2 318.412 116.2Z" fill="#3D90BE"/>
<path fill-rule="evenodd" clip-rule="evenodd" d="M196 64H197.5C207.717 64 216 72.2827 216 82.5C216 92.7173 207.717 101 197.5 101H196C190.942 110.021 183.089 115 173.012 115H197.5C215.449 115 230 100.449 230 82.5C230 64.5507 215.449 50 197.5 50H173.012C183.089 50 190.942 54.9792 196 64ZM173.012 64L159 50H157.5C139.551 50 125 64.5507 125 82.5C125 100.449 139.551 115 157.5 115H159L173.012 101H157.5C147.283 101 139 92.7173 139 82.5C139 72.2827 147.283 64 157.5 64H173.012Z" fill="#FF9E2D"/>
<rect x="97" y="57" width="91" height="51" rx="25.5" stroke="#FF9E2D" stroke-width="14"/>
</g>
<defs>
<clipPath id="clip0_435_162">
<rect width="356" height="140" fill="white"/>
</clipPath>
</defs>
</svg>
